# xmcd
#
# Track frame offsets:
#	150
#	14113
#	30505
#	44497
#	58943
#	76715
#	88477
#	100096
#	109695
#	122303
#	136244
#	148861
#	162223
#	176485
#	189727
#	198427
#	212074
#	220351
#	228446
#	238048
#
# Disc length: 3327 seconds
#
# Revision: 6
# Processed by: cddbd v1.5.1PL0 Copyright (c) Steve Scherf et al.
# Submitted via: audiograbber 1.83.01
#
DISCID=200cfd14
DTITLE=Tonico and Tinoco - As 20 Mais
DYEAR=1900
DGENRE=
TTITLE0=Chico Mineiro
TTITLE1=Pé De Ipê
TTITLE2=Moreninha Linda
TTITLE3=Couro De Boi
TTITLE4=Cabocla Tereza
TTITLE5=Cavalo Preto
TTITLE6=Cana Verde
TTITLE7=Ciriema
TTITLE8=Mourão Da Porteira
TTITLE9=Velho Candieiro
TTITLE10=Velhas Cartas
TTITLE11=Tristeza Do Jeca
TTITLE12=A Saudade Vai
TTITLE13=Feijão Queimado
TTITLE14=Amanhecer Na Roça
TTITLE15=Quadrilha No Terreiro   
TTITLE16=Prece São João
TTITLE17=Cantar Não É Pecado
TTITLE18=Tempo Bão
TTITLE19=Arrasta Pé Na Tuia
EXTD=
EXTT0=
EXTT1=
EXTT2=
EXTT3=
EXTT4=
EXTT5=
EXTT6=
EXTT7=
EXTT8=
EXTT9=
EXTT10=
EXTT11=
EXTT12=
EXTT13=
EXTT14=
EXTT15=
EXTT16=
EXTT17=
EXTT18=
EXTT19=
PLAYORDER=
